<?xml version="1.0" encoding="utf-8"?>
<!DOCTYPE svg PUBLIC "-//W3C//DTD SVG 1.1//EN" "http://www.w3.org/Graphics/SVG/1.1/DTD/svg11.dtd" [
	<!ENTITY ns_svg "http://www.w3.org/2000/svg">
	<!ENTITY ns_xlink "http://www.w3.org/1999/xlink">
]>
<svg xmlns="http://www.w3.org/2000/svg" xml:space="preserve" width="283.502" height="283.503" overflow="visible">
  <path fill="#E1B546" stroke="#815D38" stroke-width="1.5" d="m141.754 1.254 8.99 12.036 10.574-10.668 7.229 13.172 11.956-9.092 5.326 14.051 13.106-7.339 3.319 14.656 13.998-5.442 1.249 14.976 14.618-3.44-.846 15.003 14.956-1.37-2.925 14.739 15.001.726-4.948 14.189 14.752 2.807-6.869 13.362 14.218 4.835-8.663 12.274 13.407 6.769-10.284 10.948 12.333 8.569-11.706 9.41 11.023 10.204-12.903 7.688 9.496 11.639-13.846 5.816 7.788 12.849-14.523 3.831 5.923 13.809-14.911 1.771 3.944 14.498-15.015-.322 1.89 14.907-14.821-2.41-.203 15.025-14.343-4.451-2.291 14.851-13.584-6.404-4.332 14.385-12.562-8.234-6.294 13.644-11.293-9.903-8.129 12.635-9.806-11.379-9.806 11.379-8.129-12.635-11.294 9.903-6.292-13.644-12.561 8.234-4.334-14.385-13.584 6.404-2.29-14.851-14.344 4.45-.201-15.024-14.823 2.41 1.889-14.907-15.013.322 3.945-14.498-14.914-1.772 5.923-13.808-14.521-3.831 7.786-12.85-13.846-5.815 9.497-11.639-12.903-7.688 11.024-10.204-11.71-9.41 12.337-8.569-10.285-10.948 13.407-6.769-8.662-12.275 14.219-4.835-6.872-13.361 14.752-2.808-4.946-14.188 15-.726-2.923-14.739 14.954 1.37-.846-15.003 14.618 3.439 1.249-14.975 13.999 5.442 3.318-14.656 13.106 7.339 5.327-14.051 11.956 9.092 7.228-13.172 10.576 10.668z"/>
  <linearGradient id="a" x1="141.7524" x2="141.7524" y1="23.8335" y2="259.6719" gradientUnits="userSpaceOnUse">
    <stop offset="0" stop-color="#e1b546"/>
    <stop offset=".4555" stop-color="#deb346"/>
    <stop offset=".6195" stop-color="#d5aa46"/>
    <stop offset=".7365" stop-color="#c69c43"/>
    <stop offset=".831" stop-color="#b38942"/>
    <stop offset=".911" stop-color="#9b753d"/>
    <stop offset=".9815" stop-color="#825e38"/>
    <stop offset=".9841" stop-color="#815d38"/>
  </linearGradient>
  <circle cx="141.752" cy="141.754" r="117.918" fill="url(#a)"/>
</svg>